<?xml version="1.0" standalone="no"?>
<!DOCTYPE svg PUBLIC "-//W3C//DTD SVG 20010904//EN"
 "http://www.w3.org/TR/2001/REC-SVG-20010904/DTD/svg10.dtd">
<svg version="1.0" xmlns="http://www.w3.org/2000/svg"
 width="192.000000pt" height="192.000000pt" viewBox="0 0 192.000000 192.000000"
 preserveAspectRatio="xMidYMid meet">

<g transform="translate(0.000000,192.000000) scale(0.100000,-0.100000)"
fill="#000000" stroke="none">
<path d="M317 1602 c-26 -26 -47 -52 -47 -57 0 -6 129 -139 287 -297 l288
-288 -290 -290 -290 -290 58 -57 57 -58 290 290 290 290 290 -290 290 -290 57
58 58 57 -290 290 -290 290 288 288 c158 158 287 292 287 297 0 13 -92 105
-105 105 -6 0 -139 -129 -297 -287 l-288 -288 -288 288 c-158 158 -292 287
-297 287 -6 0 -32 -22 -58 -48z"/>
</g>
</svg>
